<svg xmlns="http://www.w3.org/2000/svg" version="1.1" xmlns:xlink="http://www.w3.org/1999/xlink" xmlns:svgjs="http://svgjs.dev/svgjs" width="1440" height="560" preserveAspectRatio="none" viewBox="0 0 1440 560"><g mask="url(&quot;#SvgjsMask2039&quot;)" fill="none"><rect width="1440" height="560" x="0" y="0" fill="rgba(17, 19, 20, 1)"></rect><g transform="translate(0, -5.6)" stroke-linecap="round" stroke="url(&quot;#SvgjsLinearGradient2040&quot;)"><path d="M285 203.03 L285 356.97" stroke-width="21.75"></path><path d="M314 195.44 L314 364.56" stroke-width="21.75"></path><path d="M343 201.14 L343 358.86" stroke-width="21.75"></path><path d="M372 241.4 L372 318.6" stroke-width="21.75"></path><path d="M401 181.94 L401 378.06" stroke-width="21.75"></path><path d="M430 232.11 L430 327.89" stroke-width="21.75"></path><path d="M459 123.21 L459 436.79" stroke-width="21.75"></path><path d="M488 133.07 L488 426.93" stroke-width="21.75"></path><path d="M517 209.3 L517 350.7" stroke-width="21.75"></path><path d="M546 117.92 L546 442.08" stroke-width="21.75"></path><path d="M575 199.92 L575 360.08" stroke-width="21.75"></path><path d="M604 254.38 L604 305.62" stroke-width="21.75"></path><path d="M633 175.6 L633 384.4" stroke-width="21.75"></path><path d="M662 158.13 L662 401.88" stroke-width="21.75"></path><path d="M691 201.56 L691 358.44" stroke-width="21.75"></path><path d="M720 260.96 L720 299.04" stroke-width="21.75"></path><path d="M749 226.84 L749 333.15" stroke-width="21.75"></path><path d="M778 248.42 L778 311.58" stroke-width="21.75"></path><path d="M807 135.79 L807 424.21" stroke-width="21.75"></path><path d="M836 189.78 L836 370.22" stroke-width="21.75"></path><path d="M865 236.67 L865 323.33" stroke-width="21.75"></path><path d="M894 203.74 L894 356.26" stroke-width="21.75"></path><path d="M923 169.11 L923 390.89" stroke-width="21.75"></path><path d="M952 225.3 L952 334.7" stroke-width="21.75"></path><path d="M981 130.94 L981 429.06" stroke-width="21.75"></path><path d="M1010 156.47 L1010 403.53" stroke-width="21.75"></path><path d="M1039 162.97 L1039 397.03" stroke-width="21.75"></path><path d="M1068 238.76 L1068 321.24" stroke-width="21.75"></path><path d="M1097 122.06 L1097 437.94" stroke-width="21.75"></path><path d="M1126 202.88 L1126 357.12" stroke-width="21.75"></path><path d="M1155 201.76 L1155 358.24" stroke-width="21.75"></path></g></g><defs><mask id="SvgjsMask2039"><rect width="1440" height="560" fill="#ffffff"></rect></mask><linearGradient x1="259.2" y1="280" x2="1180.8" y2="280" gradientUnits="userSpaceOnUse" id="SvgjsLinearGradient2040"><stop stop-color="rgba(255, 111, 14, 1)" offset="0"></stop><stop stop-color="rgba(255, 255, 255, 1)" offset="0.57"></stop><stop stop-color="rgba(253, 75, 0, 1)" offset="1"></stop></linearGradient></defs></svg>